# xmcd
#
# Track frame offsets:
#	150
#	22475
#	39700
#	60900
#	91467
#	111630
#	123262
#	139725
#	164887
#
# Disc length: 2491 seconds
#
# Revision: 0
# Processed by: cddbd v1.5.2PL0 Copyright (c) Steve Scherf et al.
# Submitted via: EasyCDDAExtractor 10.0.6.1
#
DISCID=8709b909
DTITLE=eysuhl™ 박인수 - 박인수 [1989 Oasis orc1108] 뭐라고 한마디 해야할텐데
DYEAR=1989
DGENRE=Soul
TTITLE0=뭐라고 한마디해야 할텐데
TTITLE1=겨울소나타
TTITLE2=기다리겠소
TTITLE3=봄비
TTITLE4=가고픈나라
TTITLE5=여보소 날보소
TTITLE6=미련
TTITLE7=A Change Is Gonna Come
TTITLE8=뭐라고 한마디해야 할텐데 (MR)
EXTD=
EXTT0=
EXTT1=
EXTT2=
EXTT3=
EXTT4=
EXTT5=
EXTT6=
EXTT7=
EXTT8=
PLAYORDER=
